<svg xmlns="http://www.w3.org/2000/svg" width="240" height="260" version="1.0">
<path
  d="M120 20.737c-28.766 0-52.129 23.362-52.129 52.128 0 20.49 11.832 38.223 29.05 46.723 5.18 2.559-.473 9.18-4.278 4.889-9.554-10.779-23.489-17.58-39.014-17.58-28.766 0-52.129 23.362-52.129 52.129 0 28.766 23.363 52.081 52.129 52.081 28.546 0 51.828-22.96 52.128-51.423.054-5.05 7.803-5.573 7.803 1.222 0 10.7-10.286 67.523-15.793 78.357 6.011-1.515 16.03-2.773 22.233-2.773 6.203 0 16.222 1.258 22.233 2.773-5.507-10.834-15.793-67.658-15.793-78.357 0-6.795 7.75-6.271 7.803-1.222.3 28.462 23.583 51.423 52.128 51.423 28.767 0 52.129-23.315 52.129-52.081 0-28.767-23.362-52.129-52.129-52.129-15.525 0-29.46 6.801-39.014 17.58-3.805 4.292-9.459-2.33-4.277-4.889 17.217-8.5 29.049-26.233 29.049-46.723 0-28.766-23.363-52.128-52.129-52.128z" />
</svg>